<svg fill="none" height="24" viewBox="0 0 24 24" width="24" xmlns="http://www.w3.org/2000/svg"><g fill="#000"><path d="m8.7351 14.0181c.17575-.3196.51152-.5181.87622-.5181h6.85868c.75 0 1.41-.41 1.75-1.03l3.3808-6.13959c.1098-.19944.144-.42016.1121-.6291.1775-.18049.2871-.4281.2871-.70131 0-.55228-.4477-1-1-1h-15c-.03297 0-.06557.0016-.09772.00471l-.17058-.36036c-.33075-.69878-1.03462-1.14435-1.80772-1.14435h-1.00394c-.55228 0-1 .44772-1 1s.44772 1 1 1h.22514c.47322 0 .90413.27254 1.10693.70011l2.82811 5.96259c.2761.5821.25487 1.2616-.05704 1.8253l-.85314 1.542c-.73 1.34.23 2.97 1.75 2.97h10.99996c.5523 0 1-.4477 1-1s-.4477-1-1-1h-9.30869c-.7606 0-1.24276-.8155-.87621-1.4819z"/><path d="m7.92005 18.5c-1.1 0-1.99.9-1.99 2s.89 2 1.99 2 2-.9 2-2-.9-2-2-2z"/><path d="m17.9201 18.5c-1.1 0-1.99.9-1.99 2s.89 2 1.99 2 2-.9 2-2-.9-2-2-2z"/></g><path d="m15.99 7.17168-.5875-.59166-2.7458 2.74583-1.075-1.07083-.5917.5875 1.6667 1.66248z" fill="#fff"/></svg>